HIERARCHY
ROOT Hips
{
	OFFSET 0.000000 8.830580 0.000000
	CHANNELS 6 Xposition Yposition Zposition Zrotation Yrotation Xrotation 
	JOINT Spine
	{
		OFFSET 0.000000 0.010000 0.000000
		CHANNELS 3 Zrotation Yrotation Xrotation
		JOINT Spine1
		{
			OFFSET 0.000000 2.459130 0.000000
			CHANNELS 3 Zrotation Yrotation Xrotation
			JOINT Neck
			{
				OFFSET 0.000000 2.484630 0.000000
				CHANNELS 3 Zrotation Yrotation Xrotation
				JOINT Head_virtual
				{
					OFFSET 0.000000 0.000000 0.000000
					CHANNELS 3 Zrotation Yrotation Xrotation
					JOINT Head
					{
						OFFSET 0.000000 0.927525 0.000000
						CHANNELS 3 Zrotation Yrotation Xrotation
						End Site
						{
							OFFSET 0.000000 0.000000 0.000000
						}
					}
				}
				JOINT LeftUpArm_virtual
				{
					OFFSET 0.000000 0.000000 0.000000
					CHANNELS 3 Zrotation Yrotation Xrotation
					JOINT LeftUpArm
					{
						OFFSET 1.248820 0.000000 0.000000
						CHANNELS 3 Zrotation Yrotation Xrotation
						JOINT LeftForeArm
						{
							OFFSET 2.597580 0.000000 0.000000
							CHANNELS 3 Zrotation Yrotation Xrotation
							JOINT LeftHand
							{
								OFFSET 2.455420 0.000000 0.000000
								CHANNELS 3 Zrotation Yrotation Xrotation
								End Site
								{
									OFFSET 0.000000 0.000000 0.000000
								}
							}
						}
					}
				}
				JOINT RightUpArm_virtual
				{
					OFFSET -0.000000 -0.000000 -0.000000
					CHANNELS 3 Zrotation Yrotation Xrotation
					JOINT RightUpArm
					{
						OFFSET -1.248820 -0.000000 -0.000000
						CHANNELS 3 Zrotation Yrotation Xrotation
						JOINT RightForeArm
						{
							OFFSET -2.597580 -0.000000 -0.000000
							CHANNELS 3 Zrotation Yrotation Xrotation
							JOINT RightHand
							{
								OFFSET -2.455420 -0.000000 -0.000000
								CHANNELS 3 Zrotation Yrotation Xrotation
								End Site
								{
									OFFSET 0.000000 0.000000 0.000000
								}
							}
						}
					}
				}
			}
		}
	}
	JOINT LeftUpLeg
	{
		OFFSET 1.271939 0.000000 0.000000
		CHANNELS 3 Zrotation Yrotation Xrotation
		JOINT LeftLowLeg
		{
			OFFSET 0.000000 -4.342910 0.000000
			CHANNELS 3 Zrotation Yrotation Xrotation
			JOINT LeftFoot
			{
				OFFSET 0.000000 -4.487670 0.000000
				CHANNELS 3 Zrotation Yrotation Xrotation
				JOINT LeftToeBase
				{
					OFFSET 0.000000 0.000000 1.515070
					CHANNELS 3 Zrotation Yrotation Xrotation
					End Site
					{
						OFFSET 0.000000 0.000000 0.000000
					}
				}
			}
		}
	}
	JOINT RightUpLeg
	{
		OFFSET -1.271939 0.000000 0.000000
		CHANNELS 3 Zrotation Yrotation Xrotation
		JOINT RightLowLeg
		{
			OFFSET 0.000000 -4.342910 0.000000
			CHANNELS 3 Zrotation Yrotation Xrotation
			JOINT RightFoot
			{
				OFFSET 0.000000 -4.487670 0.000000
				CHANNELS 3 Zrotation Yrotation Xrotation
				JOINT RightToeBase
				{
					OFFSET 0.000000 0.000000 1.515070
					CHANNELS 3 Zrotation Yrotation Xrotation
					End Site
					{
						OFFSET 0.000000 0.000000 0.000000
					}
				}
			}
		}
	}
}
MOTION
Frames: 7
Frame Time: 0.041667
-16.258128 8.994149 56.851345 -168.853386 53.465646 -165.189926 2.859515 -4.245863 -8.486302 11.913463 -3.528260 13.159490 0.000000 0.000000 0.000000 -21.753308 12.234160 -8.322869 -2.372597 4.848176 -41.010830 -16.680799 7.038040 2.058120 -33.806400 -2.658410 48.977100 180.000000 -84.922501 -180.000000 -0.105537 1.835730 -35.319401 20.764500 -6.151380 6.551080 37.877899 -3.977420 29.310801 0.000000 21.090500 0.000000 -3.230080 -4.916610 -9.663040 -0.602671 -5.780100 -5.756888 0.000000 0.000000 18.133699 20.005338 0.795716 0.391538 0.000000 0.000000 -38.604099 1.891402 4.547676 -24.866576 0.000000 0.000000 28.873899 11.211498 -7.552378 11.917328 0.000000 0.000000 -29.010000 
-16.145968 8.982138 56.799348 -169.470841 52.760290 -165.386995 2.863533 -4.261995 -8.645892 11.552223 -3.544692 13.082872 0.000000 0.000000 0.000000 -21.512660 12.102950 -8.451908 -2.468486 4.863372 -41.179910 -16.563801 7.159620 2.061230 -33.735401 -2.655650 48.930801 180.000000 -84.907501 180.000000 -0.729046 1.915450 -28.835100 20.803499 -6.187570 6.453920 38.048901 -4.674790 29.719000 0.000000 20.915001 0.000000 -2.644300 -5.425980 -10.387100 -0.634051 -6.094480 -5.385768 0.000000 0.000000 18.121799 19.963483 0.479255 -0.145605 0.000000 0.000000 -38.749001 1.384634 4.632770 -25.241420 0.000000 0.000000 24.548901 13.040897 -6.069688 11.589101 0.000000 0.000000 -27.757800 
-16.031083 8.969473 56.749047 -169.999615 52.075717 -165.602857 2.739915 -4.180085 -8.542484 11.681928 -3.370376 12.612674 0.000000 0.000000 0.000000 -21.920772 12.250999 -8.206155 -2.209776 4.689128 -41.462723 -17.106800 7.144600 4.062430 -32.949799 -3.733760 47.478600 180.000000 -84.710800 -180.000000 -0.014021 2.221220 -30.880600 20.597099 -6.470180 6.483370 38.323601 -5.250730 29.892099 0.000000 20.608700 0.000000 -2.370690 -5.795210 -11.171000 -0.590408 -6.034693 -4.959170 0.000000 0.000000 18.184799 19.980197 -0.130045 -0.791902 0.000000 0.000000 -39.063101 1.077953 4.542540 -25.429644 0.000000 0.000000 20.346300 12.602758 -5.261136 12.050776 0.000000 0.000000 -28.268300 
-15.910144 8.954501 56.696742 -170.500060 51.448142 -165.933523 2.685968 -4.112591 -8.608795 11.446828 -3.322477 12.801482 0.000000 0.000000 0.000000 -21.806743 12.199689 -8.548415 -2.313168 4.606289 -41.620214 -17.011700 6.923520 3.480780 -33.023899 -3.062610 47.766800 180.000000 -84.586998 180.000000 0.485689 2.380560 -30.172300 20.650999 -6.434530 6.238230 38.526699 -5.727990 29.983999 0.000000 20.329100 0.000000 -2.083010 -6.019420 -11.980400 -0.574686 -6.173723 -4.345007 0.000000 0.000000 18.260099 19.976425 -0.441856 -1.377641 0.000000 0.000000 -39.374001 0.960059 4.247106 -25.468617 0.000000 0.000000 16.532499 12.197994 -4.323584 12.536524 0.000000 0.000000 -29.282400 
-15.785798 8.938664 56.645157 -170.969412 50.758677 -166.310663 2.496749 -4.094530 -8.577958 11.387094 -3.286435 12.979017 0.000000 0.000000 0.000000 -21.360293 11.963502 -8.916265 -2.618439 4.623752 -41.775059 -16.655600 7.087410 1.741330 -33.563599 -2.265220 49.261398 -180.000000 -84.818100 180.000000 0.635301 2.231920 -30.593901 20.745899 -6.399500 6.070490 38.585098 -5.978430 30.186300 0.000000 20.155899 0.000000 -2.107320 -6.247410 -13.576800 -0.512839 -6.560215 -3.693467 0.000000 0.000000 18.418100 19.929298 -0.638244 -1.947121 0.000000 0.000000 -39.664000 0.814863 4.217855 -25.378592 0.000000 0.000000 13.052400 12.282509 -3.429987 12.725738 0.000000 0.000000 -29.276900 
-15.659685 8.923172 56.587541 -171.378664 49.949985 -166.610401 2.451343 -4.070728 -8.578715 11.478687 -3.245583 12.947227 0.000000 0.000000 0.000000 -21.432006 11.878140 -8.900035 -2.553175 4.421433 -41.980040 -16.953100 7.126010 2.204510 -33.311100 -2.616040 48.907299 -180.000000 -84.805702 180.000000 0.104518 2.067630 -29.882500 20.699301 -6.374490 6.099220 38.659801 -6.141110 29.960800 0.000000 20.049299 0.000000 -0.323301 -4.590900 -4.338780 -0.441642 -7.431548 -3.075902 0.000000 0.000000 18.624500 19.845357 -0.510003 -2.375594 0.000000 0.000000 -39.928801 0.430880 4.608750 -25.211590 0.000000 0.000000 9.929460 13.225054 -2.274643 12.646790 0.000000 0.000000 -28.330100 
-15.527199 8.906966 56.531660 -171.737703 49.202748 -166.868417 2.392642 -4.063614 -8.639135 11.490423 -3.235653 13.035446 0.000000 0.000000 0.000000 -21.550786 11.921607 -9.085095 -2.450321 4.264113 -42.095323 -17.089300 7.208220 2.116340 -33.182400 -2.570020 49.054401 -180.000000 -84.734299 180.000000 0.618147 2.179690 -30.518200 20.754801 -6.215650 6.164840 38.650398 -6.105820 30.091200 0.000000 20.003401 0.000000 -0.488571 -4.772120 -4.537810 -0.314285 -7.997306 -2.507330 0.000000 0.000000 18.989100 19.704313 -0.563818 -2.864738 0.000000 0.000000 -40.244400 0.112804 5.083609 -25.100532 0.000000 0.000000 7.469210 13.055354 -0.987462 12.623976 0.000000 0.000000 -28.522800 
